<svg xmlns="http://www.w3.org/2000/svg" viewBox="0 0 64 64">
  <circle cx="32" cy="32" r="32" fill="#16302A"/>
  <path d="M32 6c-11 0-19.5 8.7-19.5 19.6C12.5 39 32 58 32 58s19.5-19 19.5-32.4C51.5 14.7 43 6 32 6z" fill="#E8DFC8"/>
  <path d="M32 10c-8.8 0-15.7 6.9-15.7 15.7C16.3 36.6 32 52.5 32 52.5S47.7 36.6 47.7 25.7C47.7 16.9 40.8 10 32 10z" fill="#1F3D2B"/>
  <path d="M18 30c4-4 8-9 10-14 2 5 6 10 10 14-4 3-9 5-10 9-1-4-6-6-10-9z" fill="#3E6B4F" opacity="0.6"/>
  <path d="M18 30c4-3 8-6 10-9 2 3 6 6 10 9-4 2-8 3-10 6-2-3-6-4-10-6z" fill="#5C8A6B" opacity="0.7"/>
  <g transform="translate(32,26)">
    <circle r="9.5" fill="none" stroke="#E8DFC8" stroke-width="1.4"/>
    <path d="M0 -8 L2.6 -1.6 0 0 -2.6 -1.6 Z" fill="#C1502E"/>
    <path d="M0 8 L2.6 1.6 0 0 -2.6 1.6 Z" fill="#E8DFC8"/>
  </g>
</svg>
